<svg viewBox="0 0 3259.6656399999997 7387.147277777777" style="max-height: 500px" version="1.1" xml:space="preserve" xmlns:xlink="http://www.w3.org/1999/xlink" xmlns="http://www.w3.org/2000/svg" width="3259.6656399999997" height="7387.147277777777"> <defs> <style type="text/css"> .str2 {stroke:#018688;stroke-width:7.62;stroke-miterlimit:22.9256} .str4 {stroke:#03C7C9;stroke-width:7.62;stroke-miterlimit:22.9256} .str5 {stroke:#046173;stroke-width:7.62;stroke-miterlimit:22.9256} .str3 {stroke:#19EDB3;stroke-width:7.62;stroke-miterlimit:22.9256} .str1 {stroke:#1A875D;stroke-width:7.62;stroke-miterlimit:22.9256} .str6 {stroke:#1CC89E;stroke-width:7.62;stroke-miterlimit:22.9256} .str0 {stroke:#819098;stroke-width:7.62;stroke-miterlimit:22.9256} .fil0 {fill:none;fill-rule:nonzero} .fil2 {fill:#00ECDE;fill-rule:nonzero} .fil4 {fill:#06A1B4;fill-rule:nonzero} .fil3 {fill:#32EE88;fill-rule:nonzero} .fil1 {fill:white;fill-rule:nonzero} </style> </defs> <g id="Capa_x0020_1"> <metadata id="CorelCorpID_0Corel-Layer"/> <g> <path d="M4083.96 497.35c0,-49.45 -40.11,-89.56 -89.56,-89.56l-4.4 0c-49.46,0 -89.57,40.11 -89.57,89.56l0 6731.1c0,49.45 40.11,89.56 89.57,89.56l4.4 0c49.45,0 89.56,-40.11 89.56,-89.56l0 -6731.1z" class="fil0 str0"/> </g> <g> <path d="M1880.56 1033.1l-517.05 0c-18.13,0.56 -29.68,-8.25 -34.08,-26.38 -14.29,-55.5 -30.22,-93.41 -47.25,-112.64 -86.82,-97.27 -188.47,-110.45 -305.51,-39.01 -64.29,39.01 -96.71,85.16 -98.35,137.36 -12.09,382.44 121.42,722.03 400.55,1018.19" class="fil0 str1"/> </g> <g> <path d="M1278.87 2010.62c-152.74,149.46 -295.06,307.71 -426.39,475.3 -242.3,307.69 -380.77,656.61 -415.94,1046.76 -50.55,562.66 101.65,1057.74 457.15,1485.77 128.59,154.4 258.26,301.66 389.59,440.68" class="fil0 str2"/> </g> <g> <path d="M1283.28 5459.13c-242.33,250.57 -378.6,542.34 -409.36,875.87 -10.45,108.26 0,182.43 31.32,221.43 127.49,159.91 379.68,142.32 418.7,-81.31 3.85,-19.24 14.83,-28.58 34.07,-28.58l527.5 -0.54" class="fil0 str1"/> </g> <g> <path d="M1885.51 6446c52.75,318.69 465.95,260.45 452.22,-55.5 -9.34,-217.59 -69.78,-419.81 -180.24,-606.07 -69.79,-117.6 -146.16,-232.98 -228.57,-345.62" class="fil0 str2"/> </g> <g> <path d="M1928.92 5438.81c198.91,-166.49 368.69,-353.88 509.36,-562.12 142.32,-211 241.23,-439.58 295.62,-686.31 141.22,-642.33 0,-1235.76 -424.75,-1780.29 -62.1,-79.67 -186.82,-206.6 -373.09,-379.7" class="fil0 str1"/> </g> <g> <path d="M1936.06 2030.39c40.11,-62.64 84.06,-126.92 132.43,-192.87 175.82,-237.92 261,-506.06 256.05,-803.86 -2.2,-132.43 -54.95,-208.81 -158.8,-230.24 -164.3,-33.52 -259.36,42.85 -285.18,229.68" class="fil0 str2"/> </g> <g> <line y2="2352.93" x2="1612.42" y1="2030.39" x1="1936.06" class="fil0 str3"/> </g> <g> <path d="M1612.42 2352.93c-190.13,160.45 -356.06,346.18 -497.28,556.62" class="fil0 str2"/> </g> <g> <path d="M1115.14 2909.55c-1.66,8.25 -8.24,18.69 -19.79,30.24" class="fil0 str3"/> </g> <g> <path d="M1095.35 2939.79c-95.61,-43.97 -180.22,-41.77 -254.39,6.59 -61.55,40.1 -80.78,121.98 -43.97,185.16 32.42,55.5 89.02,80.24 170.33,73.09" class="fil0 str4"/> </g> <g> <line y2="3576.09" x2="894.79" y1="3204.63" x1="967.32" class="fil0 str2"/> </g> <g> <path d="M894.79 3576.09c-91.76,10.42 -148.36,21.97 -170.33,33.5 -102.75,54.96 -112.64,132.43 -29.12,232.98 36.82,44.51 102.21,53.85 196.17,28.04" class="fil0 str4"/> </g> <g> <path d="M891.51 3870.61c6.58,8.22 8.23,14.26 4.94,18.13" class="fil0 str3"/> </g> <g> <line y2="4243.14" x2="962.38" y1="3888.74" x1="896.45" class="fil0 str2"/> </g> <g> <path d="M962.38 4243.14c-70.87,10.99 -168.68,54.96 -179.68,132.43 -8.79,58.8 7.14,108.79 48.35,150 13.75,13.19 29.68,19.77 48.37,20.33l231.32 4.95" class="fil0 str4"/> </g> <g> <path d="M1110.74 4550.85c7.14,6.04 12.09,9.34 14.83,9.88" class="fil0 str3"/> </g> <g> <path d="M1125.57 4560.73c0,4.95 0,9.89 0,14.86 0,6.04 1.66,12.08 5.5,17.57 131.87,199.45 291.22,375.29 478.05,526.96" class="fil0 str2"/> </g> <g> <line y2="5438.81" x2="1928.92" y1="5120.12" x1="1609.12" class="fil0 str3"/> </g> <g> <line y2="6430.61" x2="1894.29" y1="6446" x1="1885.51" class="fil0 str3"/> </g> <g> <path d="M1894.29 6430.61c176.94,15.93 241.23,-54.4 193.41,-209.91 -5.48,-18.13 -16.47,-31.32 -32.4,-40.64 -63.74,-37.37 -134.63,-45.61 -212.1,-24.18" class="fil0 str4"/> </g> <g> <line y2="6144.87" x2="1826.17" y1="6155.88" x1="1843.2" class="fil0 str3"/> </g> <g> <path d="M1826.17 6144.87c-46.72,-144.5 -122.55,-265.38 -227.5,-363.75" class="fil0 str2"/> </g> <g> <line y2="5459.13" x2="1283.28" y1="5781.12" x1="1598.67" class="fil0 str3"/> </g> <g> <line y2="1690.26" x2="1593.19" y1="2010.62" x1="1278.87" class="fil0 str3"/> </g> <g> <path d="M1593.19 1690.26c103.29,-91.76 182.96,-212.08 239.56,-360.44" class="fil0 str2"/> </g> <g> <path d="M1832.75 1329.82c-3.84,6.58 -0.54,3.84 10.45,-7.69" class="fil0 str3"/> </g> <g> <path d="M1843.2 1322.13l146.7 -5.5c72.55,-2.74 127.48,-65.95 119.8,-137.92 -12.65,-121.98 -85.18,-166.49 -217.05,-134.07" class="fil0 str4"/> </g> <g> <line y2="1033.1" x2="1880.56" y1="1044.64" x1="1892.65" class="fil0 str3"/> </g> <g> <path d="M989.86 4262.93c-12.63,-3.86 -21.44,-10.44 -27.48,-19.79" class="fil0 str5"/> </g> <g> <path d="M976.13 3202.99c-2.76,0.54 -6.05,1.08 -8.81,1.64" class="fil0 str5"/> </g> <g> <line y2="1322.13" x2="1843.2" y1="1044.64" x1="1892.65" class="fil0 str6"/> </g> <g> <path d="M1832.75 1329.82l-420.35 1.64c-21.97,0 -27.47,9.34 -15.93,28.02l196.72 330.78" class="fil0 str1"/> </g> <g> <path d="M1609.12 5120.12c184.62,-163.22 344.51,-341.24 479.68,-535.21 7.15,-10.43 0,-24.18 -12.62,-24.18l-950.61 0" class="fil0 str1"/> </g> <g> <path d="M1110.74 4550.85c-49.99,-82.42 -92.86,-170.34 -128.57,-263.74 -2.76,-8.25 -0.56,-16.49 7.69,-24.18" class="fil0 str6"/> </g> <g> <path d="M989.86 4262.93l1218.18 0.54c30.79,0 48.92,-14.83 54.96,-45.05l57.68 -296.72c6.05,-29.68 -6.04,-44.51 -36.26,-44.51l-1387.97 11.55" class="fil0 str1"/> </g> <g> <line y2="3576.09" x2="894.79" y1="3870.61" x1="891.51" class="fil0 str6"/> </g> <g> <path d="M894.79 3576.09l1397.87 13.72c23.64,0.54 32.99,-11.54 28.02,-35.72l-61.54 -317.6c-4.38,-21.97 -18.13,-32.96 -40.65,-32.96l-1242.36 -0.54" class="fil0 str1"/> </g> <g> <line y2="2939.79" x2="1095.35" y1="3202.99" x1="976.13" class="fil0 str6"/> </g> <g> <path d="M1115.14 2909.55l956.63 3.3c16.49,0 25.84,-18.67 16.49,-31.86 -136.81,-191.23 -295.08,-367.05 -475.84,-528.06" class="fil0 str1"/> </g> <g> <path d="M1598.67 5781.12l-202.2 331.35c-12.65,20.87 -7.14,31.32 17.58,31.32l412.12 1.08" class="fil0 str1"/> </g> <g> <line y2="6430.61" x2="1894.29" y1="6155.88" x1="1843.2" class="fil0 str6"/> </g> <g> <path d="M9516.09 4632.16c99.45,0 165.93,-1.1 198.36,-2.74 18.69,-0.54 28.01,-10.45 28.01,-28.58l0 -2569.89c0,-20.89 10.45,-31.32 31.33,-31.32l776.4 1.1c9.91,0 17.6,-8.24 17.6,-18.13l-0.57 -370.35c0,-13.19 -6.58,-19.79 -20.31,-19.79 -333.55,0 -676.96,0 -1029.72,-0.54 -352.78,0 -695.65,0 -1029.72,0 -13.19,0 -20.33,6.58 -20.33,19.77l-0.56 370.35c0,9.89 7.7,18.13 17.59,18.13l776.41 -0.54c20.87,0 31.32,10.43 31.32,31.32l-1.64 2569.89c0,18.13 9.32,27.48 28.02,28.58 32.42,1.64 98.34,2.74 197.81,2.74z" class="fil0 str0"/> </g> <g> <path d="M13221.75 3683.22c272.54,0 470.9,0 595.08,-0.54 20.34,0 34.07,9.34 42.31,28.02l378.6 910.48c2.74,7.14 8.24,10.98 15.93,10.98l470.9 -0.54c6.6,0 8.79,-3.3 6.04,-9.34l-1247.84 -2996.3c-7.15,-18.13 -20.9,-27.48 -40.13,-28.02 -109.9,-3.84 -183.53,-6.04 -220.89,-6.04 -37.91,0 -111.54,2.2 -221.43,6.04 -19.23,0.54 -32.96,9.89 -40.11,28.02l-1247.33 2996.86c-2.18,6.04 -0.54,9.32 6.05,9.32l470.92 0c7.68,0 13.17,-3.28 15.93,-10.98l378.58 -910.48c8.24,-18.68 21.99,-28.02 42.3,-28.02 124.19,0.54 322.56,0.54 595.09,0.54z" class="fil0 str0"/> </g> <g> <path d="M16479.04 3326.62c150.56,-6.05 321.46,-7.69 512.67,-3.85 234.64,4.39 409.92,-12.65 525.86,-51.65 611.55,-204.4 789.03,-964.88 330.22,-1425.35 -168.13,-168.68 -388.48,-253.31 -660.47,-253.85 -435.73,-0.54 -820.91,0 -1156.64,1.1 -20.88,0 -31.32,10.44 -31.32,31.32l0 2996.84c0,7.14 3.3,10.98 10.44,10.98l430.8 -0.54c6.58,0 9.88,-3.3 9.88,-9.88l-1.1 -1264.9c0,-19.24 9.89,-29.68 29.66,-30.22z" class="fil0 str0"/> </g> <g> <path d="M11380.46 4407.99c0,-148.36 -120.34,-268.7 -268.68,-268.7 -148.37,0 -268.71,120.34 -268.71,268.7 0,148.36 120.34,268.68 268.71,268.68 148.34,0 268.68,-120.32 268.68,-268.68z" class="fil0 str0"/> </g> <g> <path d="M15487.25 4408.53c0,-148.36 -120.34,-268.68 -268.7,-268.68 -148.37,0 -268.69,120.32 -268.69,268.68 0,148.36 120.32,268.7 268.69,268.7 148.36,0 268.7,-120.34 268.7,-268.7z" class="fil0 str0"/> </g> <g> <path d="M9656.75 5748.16c0,-44.51 -36.27,-80.77 -80.78,-80.77 -44.51,0 -80.77,36.26 -80.77,80.77 0,44.51 36.26,80.78 80.77,80.78 44.51,0 80.78,-36.27 80.78,-80.78z" class="fil0 str1"/> </g> <g> <path d="M10535.36 5748.16c0,-44.51 -36.26,-80.77 -80.77,-80.77 -44.51,0 -80.78,36.26 -80.78,80.77 0,44.51 36.27,80.78 80.78,80.78 44.51,0 80.77,-36.27 80.77,-80.78z" class="fil0 str1"/> </g> <g> <path d="M15632.87 5747.06c0,-45.05 -36.27,-81.31 -81.34,-81.31 -45.05,0 -81.31,36.26 -81.31,81.31 0,45.05 36.26,81.32 81.31,81.32 45.07,0 81.34,-36.27 81.34,-81.32z" class="fil0 str1"/> </g> <g> <path d="M18407.71 5747.6c0,-45.05 -36.26,-81.31 -81.31,-81.31 -45.07,0 -81.34,36.26 -81.34,81.31 0,45.07 36.27,81.34 81.34,81.34 45.05,0 81.31,-36.27 81.31,-81.34z" class="fil0 str1"/> </g> <g> <path d="M5447.77 6444.9c18.13,0 34.6,-1.64 48.89,-4.95 19.79,-3.84 29.68,-15.93 29.68,-35.72l-1.66 -534.65c0,-17.57 8.24,-26.35 24.17,-26.35l164.86 1.64c19.77,0.54 29.68,-9.89 29.68,-30.78l-1.1 -96.71c-0.56,-18.13 -9.89,-26.38 -29.12,-25.82 -82.44,2.21 -170.9,2.75 -265.4,2.21 -94.53,0.54 -182.99,0 -265.4,-2.21 -18.7,-0.56 -28.58,7.69 -29.12,25.82l-1.1 96.71c0,20.89 9.88,31.32 29.66,30.78l164.85 -1.64c16.49,0 24.17,8.78 24.17,26.35l-1.64 534.65c0,19.79 9.89,31.88 29.66,35.72 14.29,3.31 30.78,4.95 48.92,4.95z" class="fil0 str1"/> </g> <g> <path d="M6592.86 5715.74c0,-12.65 -9.88,-22.54 -22.51,-22.54l-105.51 0c-12.63,0 -22.52,9.89 -22.52,22.54l0 705.52c0,12.65 9.89,22.54 22.52,22.54l105.51 0c12.63,0 22.51,-9.89 22.51,-22.54l0 -705.52z" class="fil0 str1"/> </g> <g> <path d="M9206.72 5923.98c-140.12,-67.58 -248.35,-43.39 -323.64,73.09 -86.26,132.97 -75.81,263.2 32.42,390.13 73.09,86.28 171.44,96.16 293.98,30.78 15.37,-8.25 30.22,-7.15 43.95,3.84 29.12,22.54 61,30.76 95.61,23.62 17.03,-3.29 25.83,-13.73 25.83,-31.32l0.54 -687.39c0,-23.64 -12.08,-35.17 -36.8,-34.63l-81.88 2.21c-23.63,0.56 -34.62,12.64 -33.52,37.36l6.61 179.68c0.54,15.93 -7.15,20.34 -23.1,12.63z" class="fil0 str1"/> </g> <g> <path d="M12396.45 6292.13c62.08,0 97.8,0.56 106.59,1.1 29.12,2.77 45.05,10.99 48.35,23.64l21.98 91.76c6.04,23.62 20.89,35.17 45.07,35.73l90.1 1.64c29.12,0.54 38.47,-12.65 28.58,-39.57l-248.91 -675.86c-7.14,-18.67 -20.33,-29.66 -40.67,-33.52 -15.93,-2.74 -32.42,-3.85 -49.99,-3.85 -17.59,0 -34.08,1.11 -50.02,3.85 -19.77,3.3 -33.52,14.29 -40.66,32.98l-251.65 674.76c-9.89,27.46 -0.54,40.65 28.58,40.11l90.1 -1.64c24.17,0 39.02,-12.09 45.07,-35.19l22.51 -91.76c3.3,-12.63 19.24,-20.88 48.36,-23.62 8.8,-0.56 44.51,-0.56 106.61,-0.56z" class="fil0 str1"/> </g> <g> <path d="M17410.95 6209.72c3.31,-0.54 33.53,-2.21 91.23,-4.95 353.86,-18.13 346.71,-495.61 13.19,-508.8 -106.06,-4.41 -196.18,-4.97 -269.81,-2.2 -17.57,0.54 -26.35,9.88 -26.35,26.91l-0.57 700.58c0,13.75 10.99,25.28 24.74,24.74l115.94 -3.31c11.53,-0.54 17.57,-6.58 17.57,-18.13l-1.64 -185.16c0,-16.49 12.09,-26.38 35.7,-29.68z" class="fil0 str1"/> </g> <g> <path d="M20001.76 5923.44c-112.66,-56.6 -206.63,-47.25 -283,26.92 -218.15,213.21 -4.94,646.2 276.95,472.56 14.83,-9.35 33.5,-9.89 48.89,-1.66 34.63,18.13 69.23,26.38 102.75,23.64 17.04,-1.64 25.84,-10.99 25.84,-28.02l1.08 -686.31c0,-24.72 -10.99,-37.37 -32.96,-37.91l-86.82 -1.1c-20.33,-0.56 -30.76,9.35 -30.22,29.12l2.2 187.93c0,18.13 -8.24,23.08 -24.71,14.83z" class="fil0 str1"/> </g> <g> <path d="M15261.95 5865.74l6.61 -66.48c2.2,-22.54 -8.81,-35.17 -32.42,-38.47 -35.17,-4.94 -61.54,-3.84 -78.58,2.76 -19.23,7.13 -26.91,20.88 -24.17,41.21 10.42,68.69 -12.09,102.75 -68.69,102.19 -17.59,0 -32.96,13.75 -34.62,31.32 -2.74,35.73 2.2,64.31 15.39,85.72 6.04,9.91 15.93,14.85 28.58,14.29l21.97 -1.1c12.09,-0.54 22.54,10.99 21.98,25.84 -6.05,169.23 -38.47,405.51 213.2,395.61 17.57,-0.54 32.96,-10.43 41.21,-25.28 8.25,-15.93 10.43,-40.65 6.04,-75.27 -2.2,-17.03 -12.64,-31.32 -26.37,-35.17l-58.24 -17.03c-17.03,-4.94 -25.84,-17.59 -26.38,-36.82l-4.94 -201.66c-0.57,-19.77 9.88,-31.86 32.42,-35.7 12.09,-2.21 28.02,-1.11 48.35,3.28 19.23,3.86 29.66,-3.85 32.42,-23.08 5.49,-37.36 6.59,-63.74 3.28,-79.11 -4.94,-22.54 -17.57,-34.06 -37.9,-34.63l-52.76 -2.2c-19.23,-0.54 -28.02,-10.42 -26.38,-30.22z" class="fil0 str1"/> </g> <g> <path d="M5979.65 6224.01l287.93 0c80.78,0 103.85,-36.83 68.69,-110.46 -34.62,-71.97 -52.22,-109.33 -53.86,-111.54 -41.2,-69.78 -98.9,-107.15 -172.53,-112.09 -255.5,-18.67 -413.2,254.41 -259.9,456.61 124.72,163.75 328.04,143.98 456.07,-20.87 13.19,-16.48 1.1,-41.21 -20.33,-40.65 -67.59,1.08 -128.59,11.53 -182.43,31.3 -54.96,20.33 -126.38,-5.48 -148.36,-54.4 -11.55,-25.28 -3.3,-37.9 24.72,-37.9z" class="fil0 str1"/> </g> <g> <path d="M6886.84 6224.55l286.82 -0.54c81.87,0 104.41,-36.83 68.69,-110.46 -39.55,-81.85 -59.88,-123.62 -60.99,-124.72 -46.71,-59.34 -95.06,-91.77 -143.95,-96.71 -178.58,-19.23 -287.94,53.3 -328.61,218.15 -26.38,106.59 -1.1,196.15 76.4,268.14 63.18,58.8 132.4,85.72 208.24,80.78 92.86,-6.61 167.03,-54.96 221.45,-145.06 7.12,-10.99 -0.56,-25.84 -13.75,-26.38 -64.29,-3.3 -122.53,4.94 -175.84,24.18 -66.49,23.61 -140.12,7.14 -163.19,-51.66 -9.33,-23.64 -1.1,-35.72 24.73,-35.72z" class="fil0 str1"/> </g> <g> <path d="M7450.61 5923.98c-23.64,-25.25 -52.76,-34.6 -87.92,-28.56 -20.88,3.31 -31.32,15.39 -31.32,35.71l-0.54 485.19c0,20.33 10.98,30.78 32.4,30.22l84.07 -2.18c21.44,-0.56 32.43,-11.55 32.43,-32.99l1.64 -300c0,-51.12 26.94,-79.67 80.77,-84.62 3.85,-0.56 13.75,2.18 29.68,7.15 34.07,10.42 51.1,34.06 51.66,70.86l2.74 309.36c0,20.89 9.89,31.32 29.12,31.32l89.02 -0.54c19.23,0 29.12,-9.35 29.12,-27.48l4.38 -325.84c0.56,-33.51 27.48,-60.99 61.54,-62.09l19.8 -0.56c43.41,-1.1 78.57,33.53 79.11,76.4l2.2 313.75c0,14.83 7.71,23.07 23.64,23.61l96.14 3.85c16.5,0.56 24.74,-7.15 25.28,-24.18 4.95,-237.36 52.22,-581.33 -239.02,-532.98 -17.57,2.74 -48.35,18.67 -92.86,47.25 -15.37,9.35 -30.22,8.79 -43.95,-2.74 -79.14,-65.41 -157.15,-67.59 -234.62,-6.61 -15.95,12.65 -30.78,11.55 -44.51,-3.3z" class="fil0 str1"/> </g> <g> <path d="M8405.04 6222.37l280.79 3.28c75.83,0.56 98.9,-34.61 68.68,-106.6 -25.27,-59.9 -40.66,-93.96 -45.61,-103.31 -43.41,-74.71 -98.34,-115.93 -164.83,-123.62 -159.35,-19.23 -264.3,42.87 -314.85,185.73 -35.17,98.9 -23.08,187.36 36.26,265.94 121.98,161.55 341.21,154.96 455.51,-23.62 13.19,-20.89 7.69,-32.42 -17.03,-34.08 -58.8,-4.38 -114.3,4.4 -167.6,25.84 -34.06,14.29 -62.64,17.03 -85.15,8.24 -52.76,-19.79 -78.58,-42.31 -76.94,-67.58 1.65,-20.34 11.53,-30.22 30.77,-30.22z" class="fil0 str1"/> </g> <g> <path d="M9750.17 6170.71c-1.66,302.21 398.37,409.36 528.04,106.59 8.24,-18.67 2.2,-30.76 -17.59,-35.7 -67.59,-18.69 -123.63,0.54 -168.14,57.14 -11.53,14.83 -29.12,23.07 -47.79,22.53 -97.81,-3.86 -146.16,-53.85 -145.62,-149.46 0,-96.16 49.45,-145.62 147.26,-148.36 18.67,-0.56 36.27,8.25 47.25,23.08 43.97,57.13 100.01,76.93 167.6,58.8 19.77,-4.95 25.81,-16.5 18.13,-35.17 -126.39,-304.43 -527.5,-201.68 -529.14,100.55z" class="fil0 str1"/> </g> <g> <path d="M10757.89 5923.44c-32.4,-21.43 -59.34,-31.32 -81.85,-29.12 -22.54,2.74 -34.08,15.39 -34.08,38.47l-1.11 487.93c0,13.19 10.45,23.64 23.64,23.64l103.85 -0.56c12.09,0 21.44,-9.35 21.44,-20.88l0.54 -299.46c0,-56.06 47.81,-100.01 103.31,-95.07 1.64,0 2.74,0 3.84,0 66.48,1.64 100.01,32.43 101.11,93.41l4.94 301.66c0.54,14.29 7.15,21.44 20.88,20.9l103.85 -0.56c14.83,0 22.53,-7.69 23.07,-23.08 4.94,-156.05 31.32,-400.01 -80.77,-488.49 -76.38,-60.98 -164.29,-63.75 -263.74,-7.15 -17.03,9.35 -32.96,8.81 -48.92,-1.64z" class="fil0 str1"/> </g> <g> <path d="M11540.91 6116.31c-475.85,-29.68 -315.4,491.24 8.78,303.85 15.93,-9.33 31.32,-9.33 47.25,0 31.89,18.13 62.11,26.94 91.23,25.84 18.67,-0.56 28.58,-10.45 29.68,-29.12 4.94,-84.08 0,-179.14 1.64,-290.68 4.94,-268.7 -354.96,-341.23 -448.37,-91.76 -8.24,21.43 -0.56,33.52 21.98,36.8 59.88,8.81 114.84,-5.48 165.93,-42.85 15.39,-10.98 32.42,-13.73 50.56,-8.78 28.57,8.22 47.25,31.32 56.03,68.12 4.97,20.34 -3.28,30.22 -24.71,28.58z" class="fil0 str1"/> </g> <g> <path d="M12920.64 5923.44c-31.32,-15.93 -61.54,-24.71 -90.12,-27.48 -22.51,-1.64 -33.52,8.25 -33.52,30.78l1.66 493.98c0,14.83 7.69,22.54 22.54,23.08l102.75 0.56c16.47,0.54 24.17,-7.15 23.61,-22 -7.14,-118.14 -5.48,-214.85 3.84,-290.66 9.35,-74.19 51.12,-104.95 125.29,-93.42 20.87,3.3 39.57,-11.53 40.11,-31.86l2.2 -78.58c0.56,-29.11 -13.73,-44.51 -42.85,-45.07 -30.22,-1.1 -64.84,10.99 -103.31,36.83 -16.49,11.53 -34.06,12.63 -52.2,3.84z" class="fil0 str1"/> </g> <g> <path d="M13561.88 6411.37c-6.58,48.92 -30.22,81.34 -70.33,96.17 -74.73,28.58 -148.92,-39.01 -216.51,-38.47 -96.14,1.64 -104.93,35.73 -26.35,102.75 106.59,90.66 220.33,105.49 341.77,44.51 82.96,-41.77 115.38,-119.78 115.94,-212.64 0.54,-159.35 0.54,-314.32 -1.1,-465.42 0,-37.36 -41.77,-60.44 -73.09,-40.11l-42.85 26.92c-12.65,8.25 -26.38,8.81 -41.21,1.1 -131.89,-69.78 -239.02,-49.45 -322,62.11 -87.92,119.22 -79.67,241.22 24.72,365.94 66.5,79.12 160.45,91.21 281.89,35.71 22.54,-10.43 31.86,-3.28 29.12,21.43z" class="fil0 str1"/> </g> <g> <path d="M13976.74 6224.55l300.01 -1.08c79.67,0 102.74,-36.29 69.24,-109.36 -30.22,-65.94 -48.91,-103.85 -55.49,-113.2 -52.76,-74.17 -112.66,-111.53 -179.15,-113.19 -154.4,-3.85 -252.75,62.64 -295.62,198.37 -98.34,308.25 300.03,524.74 498.38,235.18 10.45,-15.39 -0.54,-35.72 -18.67,-35.72 -65.39,-1.1 -134.63,11.55 -207.7,38.46 -26.94,9.35 -53.86,2.21 -81.88,-22.53l-43.97 -39.01c-14.83,-13.19 -5.48,-37.92 14.85,-37.92z" class="fil0 str1"/> </g> <g> <path d="M14585.02 5926.18l-97.81 -29.12c-26.94,-8.24 -40.67,1.1 -40.67,26.92l-1.1 496.18c-0.56,12.65 9.89,22.53 23.08,23.1l103.31 2.18c14.83,0 22.51,-7.15 22.51,-21.42l1.1 -301.66c0,-51.12 46.15,-92.87 103.85,-93.97l3.84 0c66.49,2.74 100.57,34.07 101.67,92.87l6.59 296.72c0.56,17.57 9.35,26.38 26.92,26.38l98.36 -0.56c10.45,0 18.68,-9.35 19.24,-20.88 4.38,-125.82 3.3,-232.98 -2.74,-321.46 -12.09,-171.43 -166.5,-272.52 -324.21,-182.96 -15.93,9.34 -30.22,11.53 -43.94,7.68z" class="fil0 str1"/> </g> <g> <path d="M15856.5 5922.9c-23.64,-21.43 -53.3,-30.22 -88.46,-27.48 -19.23,1.64 -29.14,12.09 -29.14,31.32l-1.64 493.98c0,13.19 10.45,24.18 23.07,23.64l103.31 -1.67c14.83,0 22.52,-7.14 22.52,-21.43l2.2 -296.16c0.56,-58.8 48.35,-103.85 102.21,-97.27 1.64,0.56 2.74,0.56 4.38,0.56 65.95,1.64 99.47,32.97 100.57,95.07l3.84 292.32c0.54,18.13 9.35,27.48 26.92,27.48l98.91 1.64c12.09,0 22.53,-9.89 23.07,-21.98 4.41,-108.79 2.77,-214.3 -5.48,-315.95 -12.65,-162.65 -98.91,-235.18 -257.71,-217.05 -34.07,3.84 -52.74,24.74 -76.92,35.16 -21.99,9.35 -39.02,8.25 -51.65,-2.18z" class="fil0 str1"/> </g> <g> <path d="M16643.35 6114.11c-490.69,-22.53 -308.27,490.67 -10.44,309.91 15.93,-9.34 31.86,-10.45 48.89,-2.76 37.93,18.13 72.55,26.38 103.85,24.74 19.79,-0.56 29.68,-10.99 29.14,-30.22 -1.1,-84.08 34.06,-356.63 -57.7,-459.92 -107.69,-120.88 -337.93,-90.12 -389.58,79.12 -6.05,19.79 1.1,31.32 21.43,35.18 48.89,8.23 92.86,0.54 132.97,-23.09 35.73,-20.32 60.44,-30.23 74.73,-28.56 31.86,3.84 54.4,26.37 68.13,68.12 4.4,14.29 -6.59,28.02 -21.42,27.48z" class="fil0 str1"/> </g> <g> <path d="M17997.81 5923.44c-32.42,-21.43 -66.5,-30.22 -102.77,-26.92 -19.77,1.64 -29.66,12.63 -29.12,32.43l0 485.17c0,20.33 8.81,30.78 26.38,30.24l92.87 0c22.53,0 33.52,-11.01 32.42,-33.53 -3.85,-85.17 -3.85,-173.09 0.54,-263.2 3.86,-86.81 51.11,-122.54 140.67,-107.69 15.93,2.74 24.18,-4.96 24.72,-21.99l2.2 -96.71c0.56,-17.57 -8.24,-29.12 -25.82,-34.06 -36.82,-10.45 -74.19,1.1 -112.63,33.52 -15.95,13.19 -32.42,14.29 -49.46,2.74z" class="fil0 str1"/> </g> <g> <path d="M19414.9 6420.72c26.94,22.54 56.59,31.32 89.02,26.38 18.69,-2.74 28.58,-13.75 29.12,-32.42 2.76,-84.08 2.2,-183.53 -1.64,-298.37 -6.05,-164.29 -91.23,-240.68 -255.52,-228.59 -97.24,7.14 -160.45,56.6 -189.57,149.46 -6.58,20.33 0.56,31.88 21.44,35.16 56.04,9.35 111.53,-6.04 165.93,-45.59 17.05,-12.09 35.18,-14.29 54.4,-6.6 31.32,11.55 48.91,31.88 53.85,61 3.31,18.13 -4.4,28.56 -23.61,30.22 -140.68,13.19 -285.74,21.41 -302.23,168.13 -17.03,146.16 172.54,231.88 286.84,152.75 9.88,-7.13 18.13,-12.63 25.28,-16.47 16.47,-9.35 31.86,-7.71 46.69,4.94z" class="fil0 str1"/> </g> <g> <path d="M20590.78 6065.76c-0.54,34.06 -18.14,51.65 -52.2,52.75 -160.99,3.85 -250.55,49.46 -268.68,136.26 -39.03,189.59 170.33,249.47 303.84,164.85 17.04,-10.99 34.09,-10.45 50.56,1.1 26.38,18.13 54.4,27.48 83.51,27.48 19.8,0 30.23,-9.91 30.79,-29.68 7.14,-206.06 44.51,-453.87 -124.73,-514.31 -143.42,-50.56 -249.47,-10.99 -318.69,119.24 -11.01,20.87 1.64,46.15 25.27,49.45 58.78,7.69 110.98,-6.6 155.49,-42.31 14.85,-12.08 31.32,-15.39 49.45,-9.34 43.97,13.73 65.95,28.58 65.39,44.51z" class="fil0 str1"/> </g> <g> <path d="M9649.06 5919.04c0,-10.43 -8.78,-19.23 -19.23,-19.23l-109.9 0c-10.44,0 -19.23,8.8 -19.23,19.23l0 505.52c0,10.45 8.79,19.24 19.23,19.24l109.9 0c10.45,0 19.23,-8.79 19.23,-19.24l0 -505.52z" class="fil0 str1"/> </g> <g> <path d="M10528.68 5917.52c0.1,-10.57 -8.15,-18.79 -18.66,-18.71l-110.99 -0.19c-10.37,0.11 -18.61,8.33 -18.72,18.65l-0.89 507.71c-0.1,10.57 8.14,18.82 18.65,18.71l111 0.21c10.36,-0.1 18.61,-8.35 18.71,-18.65l0.9 -507.73z" class="fil0 str1"/> </g> <g> <path d="M15624.62 5918.5c0,-10.99 -8.81,-19.77 -19.79,-19.77l-108.8 0c-10.98,0 -19.77,8.78 -19.77,19.77l0 504.42c0,10.99 8.79,19.77 19.77,19.77l108.8 0c10.98,0 19.79,-8.78 19.79,-19.77l0 -504.42z" class="fil0 str1"/> </g> <g> <path d="M18400.57 5922.34c0,-13.19 -10.43,-23.61 -23.62,-23.61l-102.21 0c-13.19,0 -23.63,10.42 -23.63,23.61l0 498.92c0,13.19 10.44,23.64 23.63,23.64l102.21 0c13.19,0 23.62,-10.45 23.62,-23.64l0 -498.92z" class="fil0 str1"/> </g> <g> <path d="M18742.34 6446c23.64,0 38.47,-0.56 45.07,-1.64 18.67,-2.77 33.5,-12.65 38.45,-25.84l185.72 -490.14c7.15,-19.23 0.56,-28.57 -19.77,-29.11l-99.45 -1.11c-18.69,-0.54 -30.78,8.25 -35.72,25.82 -26.92,93.97 -62.08,197.28 -104.41,309.91 -0.54,2.2 -2.75,3.85 -5.49,4.41 -1.64,0 -2.74,0 -4.4,0 -1.1,0 -2.2,0 -3.84,0 -2.74,-0.56 -4.95,-2.21 -5.49,-4.41 -42.31,-113.19 -76.39,-216.48 -103.31,-310.45 -4.94,-17.59 -17.03,-26.38 -35.72,-25.82l-99.45 0.54c-20.33,0.57 -26.92,9.89 -19.77,29.12l184.06 490.7c4.41,13.19 19.24,23.61 38.47,26.38 6.58,1.08 21.43,1.64 45.05,1.64z" class="fil0 str1"/> </g> <g> <path d="M12779.43 3242c-4.95,12.09 3.84,25.28 16.49,25.28l851.14 1.1c13.19,0 21.97,-13.19 17.03,-24.74l-423.65 -1023.68c-6.6,-14.83 -27.48,-14.83 -33.52,0l-427.49 1022.04z" class="fil0 str0"/> </g> <g> <path d="M16451.58 2010.62l-3.3 868.17c0,10.45 8.25,18.67 18.67,18.67l743.45 2.77c253.31,1.1 459.37,-198.38 460.47,-444.53l0 -13.19c1.1,-246.72 -203.86,-446.72 -457.17,-447.82l-743.44 -2.76c-10.43,0 -18.68,8.24 -18.68,18.69z" class="fil0 str0"/> </g> <g> <path d="M9100.94 6321.27c69.52,0 126.11,-67.04 126.11,-149.13 0,-82.21 -56.59,-148.69 -126.63,-148.69 -69.52,0 -126.12,67.02 -126.12,149.13 0,82.19 56.6,148.69 126.64,148.69z" class="fil0 str1"/> </g> <g> <path d="M12393.69 6147.63c24.73,0 47.27,0.54 66.48,1.65 11.01,0.56 18.69,-9.35 15.95,-19.78 -39.56,-142.31 -66.48,-213.74 -80.77,-213.74 -14.29,0 -42.31,70.86 -83.52,212.64 -3.3,10.43 4.38,20.34 15.37,19.77 19.23,-0.54 41.77,-1.1 66.49,-0.54z" class="fil0 str1"/> </g> <g> <path d="M17375.79 5866.84l-1.1 164.86c0,12.62 10.45,23.07 23.1,23.07l82.41 0.54c71.43,0.56 129.67,-43.41 130.23,-97.24l0 -15.4c0.54,-53.85 -57.7,-97.8 -129.13,-98.36l-82.43 -0.54c-12.63,0 -23.08,10.44 -23.08,23.07z" class="fil0 str1"/> </g> <g> <path d="M19898.2 6321.81c68.93,0 125.53,-66.48 125.53,-149.23 0,-82.65 -56.06,-149.69 -125.04,-149.69 -68.93,0 -125.53,66.48 -125.53,149.25 0,82.63 56.06,149.67 125.04,149.67z" class="fil0 str1"/> </g> <g> <path d="M5961.52 6121.8l212.1 -2.18c4.4,0 8.25,-3.87 8.25,-8.25l0 -7.15c-0.57,-46.15 -48.36,-82.97 -107.16,-82.43l-16.49 0c-58.24,0.56 -105.49,38.46 -104.95,84.64l0 7.12c0,4.4 3.86,8.25 8.25,8.25z" class="fil0 str1"/> </g> <g> <path d="M6869.25 6120.7l211.01 -1.08c4.94,0 8.24,-3.87 8.24,-8.25l0 -7.15c0,-45.61 -47.25,-82.43 -104.95,-81.87l-17.59 0c-58.24,0.54 -104.95,37.36 -104.95,82.98l0 7.14c0,4.38 3.86,8.23 8.24,8.23z" class="fil0 str1"/> </g> <g> <path d="M8379.22 6121.26l212.1 -2.21c4.39,0 8.25,-3.84 8.25,-8.24l0 -6.59c-0.56,-45.61 -48.38,-82.43 -106.61,-81.87l-17.58 0c-58.26,0.54 -104.95,37.9 -104.41,84.08l0 6.58c0,4.4 3.84,8.25 8.25,8.25z" class="fil0 str1"/> </g> <g> <path d="M11568.2 6240.48c-10.8,-31.86 -59.72,-43.39 -109.5,-26.4 -49.66,17.07 -80.98,56.64 -70.37,87.98 10.82,31.84 59.71,43.39 109.52,26.38 49.64,-17.07 80.96,-56.62 70.35,-87.96z" class="fil0 str1"/> </g> <g> <path d="M13435.02 6291.03c66.96,1.1 121.92,-59.34 123,-134.36 1.12,-74.98 -52.18,-137.06 -118.73,-138.14 -66.98,-1.12 -121.92,59.32 -123.02,134.34 -1.1,74.98 52.2,137.08 118.75,138.16z" class="fil0 str1"/> </g> <g> <path d="M13967.94 6122.36l217.6 -1.1c3.29,0 6.59,-3.31 6.59,-6.61l0 -2.74c-0.54,-51.09 -48.9,-91.76 -108.26,-91.2l-16.47 0c-58.8,0.54 -106.59,41.75 -106.05,92.3l0 2.74c0,3.87 2.74,6.61 6.59,6.61z" class="fil0 str1"/> </g> <g> <path d="M16662.77 6240.23c-11.19,-32.15 -60.08,-44.24 -108.54,-27.02 -48.81,17.38 -79.03,56.95 -67.67,89.08 11.17,32.15 60.07,44.24 108.54,27.02 48.79,-17.38 79.01,-56.95 67.67,-89.08z" class="fil0 str1"/> </g> <g> <path d="M19383.62 6241.1c-10.47,-31.38 -59.39,-43.47 -109.15,-26.65 -49.68,16.7 -81.54,55.71 -71.14,86.97 10.47,31.38 59.36,43.47 109.15,26.64 49.68,-16.69 81.54,-55.7 71.14,-86.96z" class="fil0 str1"/> </g> <g> <path d="M20592.46 6241.1c-10.47,-31.38 -59.36,-43.47 -109.15,-26.65 -49.68,16.7 -81.54,55.71 -71.14,86.97 10.47,31.38 59.38,43.47 109.15,26.64 49.68,-16.69 81.54,-55.7 71.14,-86.96z" class="fil0 str1"/> </g> <path d="M4083.96 7228.45c0,49.45 -40.11,89.56 -89.56,89.56l-4.4 0c-49.46,0 -89.57,-40.11 -89.57,-89.56l0 -6731.1c0,-49.45 40.11,-89.56 89.57,-89.56l4.4 0c49.45,0 89.56,40.11 89.56,89.56l0 6731.1z" class="fil1"/> <path d="M1936.06 2030.39l-323.64 322.54c-190.13,160.45 -356.06,346.18 -497.28,556.62 -1.66,8.25 -8.24,18.69 -19.79,30.24 -95.61,-43.97 -180.22,-41.77 -254.39,6.59 -61.55,40.1 -80.78,121.98 -43.97,185.16 32.42,55.5 89.02,80.24 170.33,73.09l-72.53 371.46c-91.76,10.42 -148.36,21.97 -170.33,33.5 -102.75,54.96 -112.64,132.43 -29.12,232.98 36.82,44.51 102.21,53.85 196.17,28.04 6.58,8.22 8.23,14.26 4.94,18.13l65.93 354.4c-70.87,10.99 -168.68,54.96 -179.68,132.43 -8.79,58.8 7.14,108.79 48.35,150 13.75,13.19 29.68,19.77 48.37,20.33l231.32 4.95c7.14,6.04 12.09,9.34 14.83,9.88 0,4.95 0,9.89 0,14.86 0,6.04 1.66,12.08 5.5,17.57 131.87,199.45 291.22,375.29 478.05,526.96l319.8 318.69c82.41,112.64 158.78,228.02 228.57,345.62 110.46,186.26 170.9,388.48 180.24,606.07 13.73,315.95 -399.47,374.19 -452.22,55.5l8.78 -15.39c176.94,15.93 241.23,-54.4 193.41,-209.91 -5.48,-18.13 -16.47,-31.32 -32.4,-40.64 -63.74,-37.37 -134.63,-45.61 -212.1,-24.18l-17.03 -11.01c-46.72,-144.5 -122.55,-265.38 -227.5,-363.75l-315.39 -321.99c-131.33,-139.02 -261,-286.28 -389.59,-440.68 -355.5,-428.03 -507.7,-923.11 -457.15,-1485.77 35.17,-390.15 173.64,-739.07 415.94,-1046.76 131.33,-167.59 273.65,-325.84 426.39,-475.3l314.32 -320.36c103.29,-91.76 182.96,-212.08 239.56,-360.44 -3.84,6.58 -0.54,3.84 10.45,-7.69l146.7 -5.5c72.55,-2.74 127.48,-65.95 119.8,-137.92 -12.65,-121.98 -85.18,-166.49 -217.05,-134.07l-12.09 -11.54c25.82,-186.83 120.88,-263.2 285.18,-229.68 103.85,21.43 156.6,97.81 158.8,230.24 4.95,297.8 -80.23,565.94 -256.05,803.86 -48.37,65.95 -92.32,130.23 -132.43,192.87z" class="fil2"/> <path d="M1880.56 1033.1l12.09 11.54 -49.45 277.49c-10.99,11.53 -14.29,14.27 -10.45,7.69l-420.35 1.64c-21.97,0 -27.47,9.34 -15.93,28.02l196.72 330.78 -314.32 320.36c-279.13,-296.16 -412.64,-635.75 -400.55,-1018.19 1.64,-52.2 34.06,-98.35 98.35,-137.36 117.04,-71.44 218.69,-58.26 305.51,39.01 17.03,19.23 32.96,57.14 47.25,112.64 4.4,18.13 15.95,26.94 34.08,26.38l517.05 0z" class="fil3"/> <path d="M1843.2 1322.13l49.45 -277.49c131.87,-32.42 204.4,12.09 217.05,134.07 7.68,71.97 -47.25,135.18 -119.8,137.92l-146.7 5.5z" class="fil4"/> <path d="M9517.19 1591.92c352.76,0.54 696.17,0.54 1029.72,0.54 13.73,0 20.31,6.6 20.31,19.79l0.57 370.35c0,9.89 -7.69,18.13 -17.6,18.13l-776.4 -1.1c-20.88,0 -31.33,10.43 -31.33,31.32l0 2569.89c0,18.13 -9.32,28.04 -28.01,28.58 -32.43,1.64 -98.91,2.74 -198.36,2.74 -99.47,0 -165.39,-1.1 -197.81,-2.74 -18.7,-1.1 -28.02,-10.45 -28.02,-28.58l1.64 -2569.89c0,-20.89 -10.45,-31.32 -31.32,-31.32l-776.41 0.54c-9.89,0 -17.59,-8.24 -17.59,-18.13l0.56 -370.35c0,-13.19 7.14,-19.77 20.33,-19.77 334.07,0 676.94,0 1029.72,0z" class="fil1"/> <path d="M13221.75 1591.92c37.36,0 110.99,2.2 220.89,6.04 19.23,0.54 32.98,9.89 40.13,28.02l1247.84 2996.3c2.75,6.04 0.56,9.34 -6.04,9.34l-470.9 0.54c-7.69,0 -13.19,-3.84 -15.93,-10.98l-378.6 -910.48c-8.24,-18.68 -21.97,-28.02 -42.31,-28.02 -124.18,0.54 -322.54,0.54 -595.08,0.54 -272.53,0 -470.9,0 -595.09,-0.54 -20.31,0 -34.06,9.34 -42.3,28.02l-378.58 910.48c-2.76,7.7 -8.25,10.98 -15.93,10.98l-470.92 0c-6.59,0 -8.23,-3.28 -6.05,-9.32l1247.33 -2996.86c7.15,-18.13 20.88,-27.48 40.11,-28.02 109.89,-3.84 183.52,-6.04 221.43,-6.04zm-442.32 1650.08c-4.95,12.09 3.84,25.28 16.49,25.28l851.14 1.1c13.19,0 21.97,-13.19 17.03,-24.74l-423.65 -1023.68c-6.6,-14.83 -27.48,-14.83 -33.52,0l-427.49 1022.04z" class="fil1"/> <path d="M16449.38 3356.84l1.1 1264.9c0,6.58 -3.3,9.88 -9.88,9.88l-430.8 0.54c-7.14,0 -10.44,-3.84 -10.44,-10.98l0 -2996.84c0,-20.88 10.44,-31.32 31.32,-31.32 335.73,-1.1 720.91,-1.64 1156.64,-1.1 271.99,0.54 492.34,85.17 660.47,253.85 458.81,460.47 281.33,1220.95 -330.22,1425.35 -115.94,39 -291.22,56.04 -525.86,51.65 -191.21,-3.84 -362.11,-2.2 -512.67,3.85 -19.77,0.54 -29.66,10.98 -29.66,30.22zm2.2 -1346.22l-3.3 868.17c0,10.45 8.25,18.67 18.67,18.67l743.45 2.77c253.31,1.1 459.37,-198.38 460.47,-444.53l0 -13.19c1.1,-246.72 -203.86,-446.72 -457.17,-447.82l-743.44 -2.76c-10.43,0 -18.68,8.24 -18.68,18.69z" class="fil1"/> <path d="M1936.06 2030.39c186.27,173.1 310.99,300.03 373.09,379.7 424.75,544.53 565.97,1137.96 424.75,1780.29 -54.39,246.73 -153.3,475.31 -295.62,686.31 -140.67,208.24 -310.45,395.63 -509.36,562.12l-319.8 -318.69c184.62,-163.22 344.51,-341.24 479.68,-535.21 7.15,-10.43 0,-24.18 -12.62,-24.18l-950.61 0c-2.74,-0.54 -7.69,-3.84 -14.83,-9.88 -49.99,-82.42 -92.86,-170.34 -128.57,-263.74 -2.76,-8.25 -0.56,-16.49 7.69,-24.18l1218.18 0.54c30.79,0 48.92,-14.83 54.96,-45.05l57.68 -296.72c6.05,-29.68 -6.04,-44.51 -36.26,-44.51l-1387.97 11.55c3.29,-3.87 1.64,-9.91 -4.94,-18.13l3.28 -294.52 1397.87 13.72c23.64,0.54 32.99,-11.54 28.02,-35.72l-61.54 -317.6c-4.38,-21.97 -18.13,-32.96 -40.65,-32.96l-1242.36 -0.54 119.22 -263.2c11.55,-11.55 18.13,-21.99 19.79,-30.24l956.63 3.3c16.49,0 25.84,-18.67 16.49,-31.86 -136.81,-191.23 -295.08,-367.05 -475.84,-528.06l323.64 -322.54z" class="fil3"/> <path d="M1095.35 2939.79l-119.22 263.2c-2.76,0.54 -6.05,1.08 -8.81,1.64 -81.31,7.15 -137.91,-17.59 -170.33,-73.09 -36.81,-63.18 -17.58,-145.06 43.97,-185.16 74.17,-48.36 158.78,-50.56 254.39,-6.59z" class="fil4"/> <path d="M894.79 3576.09l-3.28 294.52c-93.96,25.81 -159.35,16.47 -196.17,-28.04 -83.52,-100.55 -73.63,-178.02 29.12,-232.98 21.97,-11.53 78.57,-23.08 170.33,-33.5z" class="fil4"/> <path d="M11380.46 4407.99c0,148.36 -120.34,268.68 -268.68,268.68 -148.37,0 -268.71,-120.32 -268.71,-268.68 0,-148.36 120.34,-268.7 268.71,-268.7 148.34,0 268.68,120.34 268.68,268.7z" class="fil1"/> <path d="M15487.25 4408.53c0,148.36 -120.34,268.7 -268.7,268.7 -148.37,0 -268.69,-120.34 -268.69,-268.7 0,-148.36 120.32,-268.68 268.69,-268.68 148.36,0 268.7,120.32 268.7,268.68z" class="fil1"/> <path d="M962.38 4243.14c6.04,9.35 14.85,15.93 27.48,19.79 -8.25,7.69 -10.45,15.93 -7.69,24.18 35.71,93.4 78.58,181.32 128.57,263.74l-231.32 -4.95c-18.69,-0.56 -34.62,-7.14 -48.37,-20.33 -41.21,-41.21 -57.14,-91.2 -48.35,-150 11,-77.47 108.81,-121.44 179.68,-132.43z" class="fil4"/> <path d="M1283.28 5459.13l315.39 321.99 -202.2 331.35c-12.65,20.87 -7.14,31.32 17.58,31.32l412.12 1.08 17.03 11.01 51.09 274.73 -8.78 15.39 -527.5 0.54c-19.24,0 -30.22,9.34 -34.07,28.58 -39.02,223.63 -291.21,241.22 -418.7,81.31 -31.32,-39 -41.77,-113.17 -31.32,-221.43 30.76,-333.53 167.03,-625.3 409.36,-875.87z" class="fil3"/> <path d="M9656.75 5748.16c0,44.51 -36.27,80.78 -80.78,80.78 -44.51,0 -80.77,-36.27 -80.77,-80.78 0,-44.51 36.26,-80.77 80.77,-80.77 44.51,0 80.78,36.26 80.78,80.77z" class="fil3"/> <path d="M10535.36 5748.16c0,44.51 -36.26,80.78 -80.77,80.78 -44.51,0 -80.78,-36.27 -80.78,-80.78 0,-44.51 36.27,-80.77 80.78,-80.77 44.51,0 80.77,36.26 80.77,80.77z" class="fil3"/> <path d="M15632.87 5747.06c0,45.05 -36.27,81.32 -81.34,81.32 -45.05,0 -81.31,-36.27 -81.31,-81.32 0,-45.05 36.26,-81.31 81.31,-81.31 45.07,0 81.34,36.26 81.34,81.31z" class="fil3"/> <path d="M18407.71 5747.6c0,45.07 -36.26,81.34 -81.31,81.34 -45.07,0 -81.34,-36.27 -81.34,-81.34 0,-45.05 36.27,-81.31 81.34,-81.31 45.05,0 81.31,36.26 81.31,81.31z" class="fil3"/> <path d="M5447.77 5693.77c94.5,0.54 182.96,0 265.4,-2.21 19.23,-0.56 28.56,7.69 29.12,25.82l1.1 96.71c0,20.89 -9.91,31.32 -29.68,30.78l-164.86 -1.64c-15.93,0 -24.17,8.78 -24.17,26.35l1.66 534.65c0,19.79 -9.89,31.88 -29.68,35.72 -14.29,3.31 -30.76,4.95 -48.89,4.95 -18.14,0 -34.63,-1.64 -48.92,-4.95 -19.77,-3.84 -29.66,-15.93 -29.66,-35.72l1.64 -534.65c0,-17.57 -7.68,-26.35 -24.17,-26.35l-164.85 1.64c-19.78,0.54 -29.66,-9.89 -29.66,-30.78l1.1 -96.71c0.54,-18.13 10.42,-26.38 29.12,-25.82 82.41,2.21 170.87,2.75 265.4,2.21z" class="fil3"/> <path d="M6592.86 6421.26c0,12.65 -9.88,22.54 -22.51,22.54l-105.51 0c-12.63,0 -22.52,-9.89 -22.52,-22.54l0 -705.52c0,-12.65 9.89,-22.54 22.52,-22.54l105.51 0c12.63,0 22.51,9.89 22.51,22.54l0 705.52z" class="fil3"/> <path d="M9229.82 5911.35l-6.61 -179.68c-1.1,-24.72 9.89,-36.8 33.52,-37.36l81.88 -2.21c24.72,-0.54 36.8,10.99 36.8,34.63l-0.54 687.39c0,17.59 -8.8,28.03 -25.83,31.32 -34.61,7.14 -66.49,-1.08 -95.61,-23.62 -13.73,-10.99 -28.58,-12.09 -43.95,-3.84 -122.54,65.38 -220.89,55.5 -293.98,-30.78 -108.23,-126.93 -118.68,-257.16 -32.42,-390.13 75.29,-116.48 183.52,-140.67 323.64,-73.09 15.95,7.71 23.64,3.3 23.1,-12.63zm-128.88 409.92c69.52,0 126.11,-67.04 126.11,-149.13 0,-82.21 -56.59,-148.69 -126.63,-148.69 -69.52,0 -126.12,67.02 -126.12,149.13 0,82.19 56.6,148.69 126.64,148.69z" class="fil3"/> <path d="M12397.55 5693.2c17.57,0 34.06,1.11 49.99,3.85 20.34,3.86 33.53,14.85 40.67,33.52l248.91 675.86c9.89,26.92 0.54,40.11 -28.58,39.57l-90.1 -1.64c-24.18,-0.56 -39.03,-12.11 -45.07,-35.73l-21.98 -91.76c-3.3,-12.65 -19.23,-20.87 -48.35,-23.64 -8.79,-0.54 -44.51,-1.1 -106.59,-1.1 -62.1,0 -97.81,0 -106.61,0.56 -29.12,2.74 -45.06,10.99 -48.36,23.62l-22.51 91.76c-6.05,23.1 -20.9,35.19 -45.07,35.19l-90.1 1.64c-29.12,0.54 -38.47,-12.65 -28.58,-40.11l251.65 -674.76c7.14,-18.69 20.89,-29.68 40.66,-32.98 15.94,-2.74 32.43,-3.85 50.02,-3.85zm-3.86 454.43c24.73,0 47.27,0.54 66.48,1.65 11.01,0.56 18.69,-9.35 15.95,-19.78 -39.56,-142.31 -66.48,-213.74 -80.77,-213.74 -14.29,0 -42.31,70.86 -83.52,212.64 -3.3,10.43 4.38,20.34 15.37,19.77 19.23,-0.54 41.77,-1.1 66.49,-0.54z" class="fil3"/> <path d="M17375.25 6239.4l1.64 185.16c0,11.55 -6.04,17.59 -17.57,18.13l-115.94 3.31c-13.75,0.54 -24.74,-10.99 -24.74,-24.74l0.57 -700.58c0,-17.03 8.78,-26.37 26.35,-26.91 73.63,-2.77 163.75,-2.21 269.81,2.2 333.52,13.19 340.67,490.67 -13.19,508.8 -57.7,2.74 -87.92,4.41 -91.23,4.95 -23.61,3.3 -35.7,13.19 -35.7,29.68zm0.54 -372.56l-1.1 164.86c0,12.62 10.45,23.07 23.1,23.07l82.41 0.54c71.43,0.56 129.67,-43.41 130.23,-97.24l0 -15.4c0.54,-53.85 -57.7,-97.8 -129.13,-98.36l-82.43 -0.54c-12.63,0 -23.08,10.44 -23.08,23.07z" class="fil3"/> <path d="M20026.47 5908.61l-2.2 -187.93c-0.54,-19.77 9.89,-29.68 30.22,-29.12l86.82 1.1c21.97,0.54 32.96,13.19 32.96,37.91l-1.08 686.31c0,17.03 -8.8,26.38 -25.84,28.02 -33.52,2.74 -68.12,-5.51 -102.75,-23.64 -15.39,-8.23 -34.06,-7.69 -48.89,1.66 -281.89,173.64 -495.1,-259.35 -276.95,-472.56 76.37,-74.17 170.34,-83.52 283,-26.92 16.47,8.25 24.71,3.3 24.71,-14.83zm-128.27 413.2c68.93,0 125.53,-66.48 125.53,-149.23 0,-82.65 -56.06,-149.69 -125.04,-149.69 -68.93,0 -125.53,66.48 -125.53,149.25 0,82.63 56.06,149.67 125.04,149.67z" class="fil3"/> <path d="M15288.33 5895.96l52.76 2.2c20.33,0.57 32.96,12.09 37.9,34.63 3.31,15.37 2.21,41.75 -3.28,79.11 -2.76,19.23 -13.19,26.94 -32.42,23.08 -20.33,-4.39 -36.26,-5.49 -48.35,-3.28 -22.54,3.84 -32.99,15.93 -32.42,35.7l4.94 201.66c0.54,19.23 9.35,31.88 26.38,36.82l58.24 17.03c13.73,3.85 24.17,18.14 26.37,35.17 4.39,34.62 2.21,59.34 -6.04,75.27 -8.25,14.85 -23.64,24.74 -41.21,25.28 -251.67,9.9 -219.25,-226.38 -213.2,-395.61 0.56,-14.85 -9.89,-26.38 -21.98,-25.84l-21.97 1.1c-12.65,0.56 -22.54,-4.38 -28.58,-14.29 -13.19,-21.41 -18.13,-49.99 -15.39,-85.72 1.66,-17.57 17.03,-31.32 34.62,-31.32 56.6,0.56 79.11,-33.5 68.69,-102.19 -2.74,-20.33 4.94,-34.08 24.17,-41.21 17.04,-6.6 43.41,-7.7 78.58,-2.76 23.61,3.3 34.62,15.93 32.42,38.47l-6.61 66.48c-1.64,19.8 7.15,29.68 26.38,30.22z" class="fil3"/> <path d="M5954.93 6261.91c21.98,48.92 93.4,74.73 148.36,54.4 53.84,-19.77 114.84,-30.22 182.43,-31.3 21.43,-0.56 33.52,24.17 20.33,40.65 -128.03,164.85 -331.35,184.62 -456.07,20.87 -153.3,-202.2 4.4,-475.28 259.9,-456.61 73.63,4.94 131.33,42.31 172.53,112.09 1.64,2.21 19.24,39.57 53.86,111.54 35.16,73.63 12.09,110.46 -68.69,110.46l-287.93 0c-28.02,0 -36.27,12.62 -24.72,37.9zm6.59 -140.11l212.1 -2.18c4.4,0 8.25,-3.87 8.25,-8.25l0 -7.15c-0.57,-46.15 -48.36,-82.97 -107.16,-82.43l-16.49 0c-58.24,0.56 -105.49,38.46 -104.95,84.64l0 7.12c0,4.4 3.86,8.25 8.25,8.25z" class="fil3"/> <path d="M6862.11 6260.27c23.07,58.8 96.7,75.27 163.19,51.66 53.31,-19.24 111.55,-27.48 175.84,-24.18 13.19,0.54 20.87,15.39 13.75,26.38 -54.42,90.1 -128.59,138.45 -221.45,145.06 -75.84,4.94 -145.06,-21.98 -208.24,-80.78 -77.5,-71.99 -102.78,-161.55 -76.4,-268.14 40.67,-164.85 150.03,-237.38 328.61,-218.15 48.89,4.94 97.24,37.37 143.95,96.71 1.11,1.1 21.44,42.87 60.99,124.72 35.72,73.63 13.18,110.46 -68.69,110.46l-286.82 0.54c-25.83,0 -34.06,12.08 -24.73,35.72zm7.14 -139.57l211.01 -1.08c4.94,0 8.24,-3.87 8.24,-8.25l0 -7.15c0,-45.61 -47.25,-82.43 -104.95,-81.87l-17.59 0c-58.24,0.54 -104.95,37.36 -104.95,82.98l0 7.14c0,4.38 3.86,8.23 8.24,8.23z" class="fil3"/> <path d="M7495.12 5927.28c77.47,-60.98 155.48,-58.8 234.62,6.61 13.73,11.53 28.58,12.09 43.95,2.74 44.51,-28.58 75.29,-44.51 92.86,-47.25 291.24,-48.35 243.97,295.62 239.02,532.98 -0.54,17.03 -8.78,24.74 -25.28,24.18l-96.14 -3.85c-15.93,-0.54 -23.64,-8.78 -23.64,-23.61l-2.2 -313.75c-0.54,-42.87 -35.7,-77.5 -79.11,-76.4l-19.8 0.56c-34.06,1.1 -60.98,28.58 -61.54,62.09l-4.38 325.84c0,18.13 -9.89,27.48 -29.12,27.48l-89.02 0.54c-19.23,0 -29.12,-10.43 -29.12,-31.32l-2.74 -309.36c-0.56,-36.8 -17.59,-60.44 -51.66,-70.86 -15.93,-4.97 -25.83,-7.71 -29.68,-7.15 -53.83,4.95 -80.77,33.5 -80.77,84.62l-1.64 300c0,21.44 -10.99,32.43 -32.43,32.99l-84.07 2.18c-21.42,0.56 -32.4,-9.89 -32.4,-30.22l0.54 -485.19c0,-20.32 10.44,-32.4 31.32,-35.71 35.16,-6.04 64.28,3.31 87.92,28.56 13.73,14.85 28.56,15.95 44.51,3.3z" class="fil3"/> <path d="M8374.27 6252.59c-1.64,25.27 24.18,47.79 76.94,67.58 22.51,8.79 51.09,6.05 85.15,-8.24 53.3,-21.44 108.8,-30.22 167.6,-25.84 24.72,1.66 30.22,13.19 17.03,34.08 -114.3,178.58 -333.53,185.17 -455.51,23.62 -59.34,-78.58 -71.43,-167.04 -36.26,-265.94 50.55,-142.86 155.5,-204.96 314.85,-185.73 66.49,7.69 121.42,48.91 164.83,123.62 4.95,9.35 20.34,43.41 45.61,103.31 30.22,71.99 7.15,107.16 -68.68,106.6l-280.79 -3.28c-19.24,0 -29.12,9.88 -30.77,30.22zm4.95 -131.33l212.1 -2.21c4.39,0 8.25,-3.84 8.25,-8.24l0 -6.59c-0.56,-45.61 -48.38,-82.43 -106.61,-81.87l-17.58 0c-58.26,0.54 -104.95,37.9 -104.41,84.08l0 6.58c0,4.4 3.84,8.25 8.25,8.25z" class="fil3"/> <path d="M9899.07 6171.81c-0.54,95.61 47.81,145.6 145.62,149.46 18.67,0.54 36.26,-7.7 47.79,-22.53 44.51,-56.6 100.55,-75.83 168.14,-57.14 19.79,4.94 25.83,17.03 17.59,35.7 -129.67,302.77 -529.7,195.62 -528.04,-106.59 1.64,-302.23 402.75,-404.98 529.14,-100.55 7.68,18.67 1.64,30.22 -18.13,35.17 -67.59,18.13 -123.63,-1.67 -167.6,-58.8 -10.98,-14.83 -28.58,-23.64 -47.25,-23.08 -97.81,2.74 -147.26,52.2 -147.26,148.36z" class="fil3"/> <path d="M10806.81 5925.08c99.45,-56.6 187.36,-53.83 263.74,7.15 112.09,88.48 85.71,332.44 80.77,488.49 -0.54,15.39 -8.24,23.08 -23.07,23.08l-103.85 0.56c-13.73,0.54 -20.34,-6.61 -20.88,-20.9l-4.94 -301.66c-1.1,-60.98 -34.63,-91.77 -101.11,-93.41 -1.1,0 -2.2,0 -3.84,0 -55.5,-4.94 -103.31,39.01 -103.31,95.07l-0.54 299.46c0,11.53 -9.35,20.88 -21.44,20.88l-103.85 0.56c-13.19,0 -23.64,-10.45 -23.64,-23.64l1.11 -487.93c0,-23.08 11.54,-35.73 34.08,-38.47 22.51,-2.2 49.45,7.69 81.85,29.12 15.96,10.45 31.89,10.99 48.92,1.64z" class="fil3"/> <path d="M11540.91 6116.31c21.43,1.64 29.68,-8.24 24.71,-28.58 -8.78,-36.8 -27.46,-59.9 -56.03,-68.12 -18.14,-4.95 -35.17,-2.2 -50.56,8.78 -51.09,37.37 -106.05,51.66 -165.93,42.85 -22.54,-3.28 -30.22,-15.37 -21.98,-36.8 93.41,-249.47 453.31,-176.94 448.37,91.76 -1.64,111.54 3.3,206.6 -1.64,290.68 -1.1,18.67 -11.01,28.56 -29.68,29.12 -29.12,1.1 -59.34,-7.71 -91.23,-25.84 -15.93,-9.33 -31.32,-9.33 -47.25,0 -324.18,187.39 -484.63,-333.53 -8.78,-303.85zm27.29 124.17c-10.8,-31.86 -59.72,-43.39 -109.5,-26.4 -49.66,17.07 -80.98,56.64 -70.37,87.98 10.82,31.84 59.71,43.39 109.52,26.38 49.64,-17.07 80.96,-56.62 70.35,-87.96z" class="fil3"/> <path d="M12972.84 5919.6c38.47,-25.84 73.09,-37.93 103.31,-36.83 29.12,0.56 43.41,15.96 42.85,45.07l-2.2 78.58c-0.54,20.33 -19.24,35.16 -40.11,31.86 -74.17,-11.53 -115.94,19.23 -125.29,93.42 -9.32,75.81 -10.98,172.52 -3.84,290.66 0.56,14.85 -7.14,22.54 -23.61,22l-102.75 -0.56c-14.85,-0.54 -22.54,-8.25 -22.54,-23.08l-1.66 -493.98c0,-22.53 11.01,-32.42 33.52,-30.78 28.58,2.77 58.8,11.55 90.12,27.48 18.14,8.79 35.71,7.69 52.2,-3.84z" class="fil3"/> <path d="M13532.76 6389.94c-121.44,55.5 -215.39,43.41 -281.89,-35.71 -104.39,-124.72 -112.64,-246.72 -24.72,-365.94 82.98,-111.56 190.11,-131.89 322,-62.11 14.83,7.71 28.56,7.15 41.21,-1.1l42.85 -26.92c31.32,-20.33 73.09,2.75 73.09,40.11 1.64,151.1 1.64,306.07 1.1,465.42 -0.56,92.86 -32.98,170.87 -115.94,212.64 -121.44,60.98 -235.18,46.15 -341.77,-44.51 -78.58,-67.02 -69.79,-101.11 26.35,-102.75 67.59,-0.54 141.78,67.05 216.51,38.47 40.11,-14.83 63.75,-47.25 70.33,-96.17 2.74,-24.71 -6.58,-31.86 -29.12,-21.43zm-97.74 -98.91c66.96,1.1 121.92,-59.34 123,-134.36 1.12,-74.98 -52.18,-137.06 -118.73,-138.14 -66.98,-1.12 -121.92,59.32 -123.02,134.34 -1.1,74.98 52.2,137.08 118.75,138.16z" class="fil3"/> <path d="M13976.74 6224.55c-20.33,0 -29.68,24.73 -14.85,37.92l43.97 39.01c28.02,24.74 54.94,31.88 81.88,22.53 73.07,-26.91 142.31,-39.56 207.7,-38.46 18.13,0 29.12,20.33 18.67,35.72 -198.35,289.56 -596.72,73.07 -498.38,-235.18 42.87,-135.73 141.22,-202.22 295.62,-198.37 66.49,1.66 126.39,39.02 179.15,113.19 6.58,9.35 25.27,47.26 55.49,113.2 33.5,73.07 10.43,109.36 -69.24,109.36l-300.01 1.08zm-8.8 -102.19l217.6 -1.1c3.29,0 6.59,-3.31 6.59,-6.61l0 -2.74c-0.54,-51.09 -48.9,-91.76 -108.26,-91.2l-16.47 0c-58.8,0.54 -106.59,41.75 -106.05,92.3l0 2.74c0,3.87 2.74,6.61 6.59,6.61z" class="fil3"/> <path d="M14628.96 5918.5c157.71,-89.56 312.12,11.53 324.21,182.96 6.04,88.48 7.12,195.64 2.74,321.46 -0.56,11.53 -8.79,20.88 -19.24,20.88l-98.36 0.56c-17.57,0 -26.36,-8.81 -26.92,-26.38l-6.59 -296.72c-1.1,-58.8 -35.18,-90.13 -101.67,-92.87l-3.84 0c-57.7,1.1 -103.85,42.85 -103.85,93.97l-1.1 301.66c0,14.27 -7.68,21.42 -22.51,21.42l-103.31 -2.18c-13.19,-0.57 -23.64,-10.45 -23.08,-23.1l1.1 -496.18c0,-25.82 13.73,-35.16 40.67,-26.92l97.81 29.12c13.72,3.85 28.01,1.66 43.94,-7.68z" class="fil3"/> <path d="M15908.15 5925.08c24.18,-10.42 42.85,-31.32 76.92,-35.16 158.8,-18.13 245.06,54.4 257.71,217.05 8.25,101.65 9.89,207.16 5.48,315.95 -0.54,12.09 -10.98,21.98 -23.07,21.98l-98.91 -1.64c-17.57,0 -26.38,-9.35 -26.92,-27.48l-3.84 -292.32c-1.1,-62.1 -34.62,-93.43 -100.57,-95.07 -1.64,0 -2.74,0 -4.38,-0.56 -53.86,-6.58 -101.65,38.47 -102.21,97.27l-2.2 296.16c0,14.29 -7.69,21.43 -22.52,21.43l-103.31 1.67c-12.62,0.54 -23.07,-10.45 -23.07,-23.64l1.64 -493.98c0,-19.23 9.91,-29.68 29.14,-31.32 35.16,-2.74 64.82,6.05 88.46,27.48 12.63,10.43 29.66,11.53 51.65,2.18z" class="fil3"/> <path d="M16643.35 6114.11c14.83,0.54 25.82,-13.19 21.42,-27.48 -13.73,-41.75 -36.27,-64.28 -68.13,-68.12 -14.29,-1.67 -39,8.24 -74.73,28.56 -40.11,23.63 -84.08,31.32 -132.97,23.09 -20.33,-3.86 -27.48,-15.39 -21.43,-35.18 51.65,-169.24 281.89,-200 389.58,-79.12 91.76,103.29 56.6,375.84 57.7,459.92 0.54,19.23 -9.35,29.66 -29.14,30.22 -31.3,1.64 -65.92,-6.61 -103.85,-24.74 -17.03,-7.69 -32.96,-6.58 -48.89,2.76 -297.83,180.76 -480.25,-332.44 10.44,-309.91zm19.42 126.12c-11.19,-32.15 -60.08,-44.24 -108.54,-27.02 -48.81,17.38 -79.03,56.95 -67.67,89.08 11.17,32.15 60.07,44.24 108.54,27.02 48.79,-17.38 79.01,-56.95 67.67,-89.08z" class="fil3"/> <path d="M18047.27 5920.7c38.44,-32.42 75.81,-43.97 112.63,-33.52 17.58,4.94 26.38,16.49 25.82,34.06l-2.2 96.71c-0.54,17.03 -8.79,24.73 -24.72,21.99 -89.56,-14.85 -136.81,20.88 -140.67,107.69 -4.39,90.11 -4.39,178.03 -0.54,263.2 1.1,22.52 -9.89,33.53 -32.42,33.53l-92.87 0c-17.57,0.54 -26.38,-9.91 -26.38,-30.24l0 -485.17c-0.54,-19.8 9.35,-30.79 29.12,-32.43 36.27,-3.3 70.35,5.49 102.77,26.92 17.04,11.55 33.51,10.45 49.46,-2.74z" class="fil3"/> <path d="M19368.21 6415.78c-7.15,3.84 -15.4,9.34 -25.28,16.47 -114.3,79.13 -303.87,-6.59 -286.84,-152.75 16.49,-146.72 161.55,-154.94 302.23,-168.13 19.21,-1.66 26.92,-12.09 23.61,-30.22 -4.94,-29.12 -22.53,-49.45 -53.85,-61 -19.22,-7.69 -37.35,-5.49 -54.4,6.6 -54.4,39.55 -109.89,54.94 -165.93,45.59 -20.88,-3.28 -28.02,-14.83 -21.44,-35.16 29.12,-92.86 92.33,-142.32 189.57,-149.46 164.29,-12.09 249.47,64.3 255.52,228.59 3.84,114.84 4.4,214.29 1.64,298.37 -0.54,18.67 -10.43,29.68 -29.12,32.42 -32.43,4.94 -62.08,-3.84 -89.02,-26.38 -14.83,-12.65 -30.22,-14.29 -46.69,-4.94zm15.41 -174.68c-10.47,-31.38 -59.39,-43.47 -109.15,-26.65 -49.68,16.7 -81.54,55.71 -71.14,86.97 10.47,31.38 59.36,43.47 109.15,26.64 49.68,-16.69 81.54,-55.7 71.14,-86.96z" class="fil3"/> <path d="M20590.78 6065.76c0.56,-15.93 -21.42,-30.78 -65.39,-44.51 -18.13,-6.05 -34.6,-2.74 -49.45,9.34 -44.51,35.71 -96.71,50 -155.49,42.31 -23.63,-3.3 -36.28,-28.58 -25.27,-49.45 69.22,-130.23 175.27,-169.8 318.69,-119.24 169.24,60.44 131.87,308.25 124.73,514.31 -0.56,19.77 -10.99,29.68 -30.79,29.68 -29.11,0 -57.13,-9.35 -83.51,-27.48 -16.47,-11.55 -33.52,-12.09 -50.56,-1.1 -133.51,84.62 -342.87,24.74 -303.84,-164.85 18.13,-86.8 107.69,-132.41 268.68,-136.26 34.06,-1.1 51.66,-18.69 52.2,-52.75zm1.68 175.34c-10.47,-31.38 -59.36,-43.47 -109.15,-26.65 -49.68,16.7 -81.54,55.71 -71.14,86.97 10.47,31.38 59.38,43.47 109.15,26.64 49.68,-16.69 81.54,-55.7 71.14,-86.96z" class="fil3"/> <path d="M9649.06 6424.56c0,10.45 -8.78,19.24 -19.23,19.24l-109.9 0c-10.44,0 -19.23,-8.79 -19.23,-19.24l0 -505.52c0,-10.43 8.79,-19.23 19.23,-19.23l109.9 0c10.45,0 19.23,8.8 19.23,19.23l0 505.52z" class="fil3"/> <path d="M10527.78 6425.25c-0.1,10.3 -8.35,18.55 -18.71,18.65l-111 -0.21c-10.51,0.11 -18.75,-8.14 -18.65,-18.71l0.89 -507.71c0.11,-10.32 8.35,-18.54 18.72,-18.65l110.99 0.19c10.51,-0.08 18.76,8.14 18.66,18.71l-0.9 507.73z" class="fil3"/> <path d="M15624.62 6422.92c0,10.99 -8.81,19.77 -19.79,19.77l-108.8 0c-10.98,0 -19.77,-8.78 -19.77,-19.77l0 -504.42c0,-10.99 8.79,-19.77 19.77,-19.77l108.8 0c10.98,0 19.79,8.78 19.79,19.77l0 504.42z" class="fil3"/> <path d="M18400.57 6421.26c0,13.19 -10.43,23.64 -23.62,23.64l-102.21 0c-13.19,0 -23.63,-10.45 -23.63,-23.64l0 -498.92c0,-13.19 10.44,-23.61 23.63,-23.61l102.21 0c13.19,0 23.62,10.42 23.62,23.61l0 498.92z" class="fil3"/> <path d="M18742.34 6238.3c1.66,0 2.76,0 4.4,0 2.74,-0.56 4.95,-2.21 5.49,-4.41 42.33,-112.63 77.49,-215.94 104.41,-309.91 4.94,-17.57 17.03,-26.36 35.72,-25.82l99.45 1.11c20.33,0.54 26.92,9.88 19.77,29.11l-185.72 490.14c-4.95,13.19 -19.78,23.07 -38.45,25.84 -6.6,1.08 -21.43,1.64 -45.07,1.64 -23.62,0 -38.47,-0.56 -45.05,-1.64 -19.23,-2.77 -34.06,-13.19 -38.47,-26.38l-184.06 -490.7c-7.15,-19.23 -0.56,-28.55 19.77,-29.12l99.45 -0.54c18.69,-0.56 30.78,8.23 35.72,25.82 26.92,93.97 61,197.26 103.31,310.45 0.54,2.2 2.75,3.85 5.49,4.41 1.64,0 2.74,0 3.84,0z" class="fil3"/> <path d="M1894.29 6430.61l-51.09 -274.73c77.47,-21.43 148.36,-13.19 212.1,24.18 15.93,9.32 26.92,22.51 32.4,40.64 47.82,155.51 -16.47,225.84 -193.41,209.91z" class="fil4"/> </g> </svg>